<svg width="35" height="35" viewBox="0 0 35 35" fill="none" xmlns="http://www.w3.org/2000/svg">
<mask id="mask0_1_15" style="mask-type:alpha" maskUnits="userSpaceOnUse" x="0" y="0" width="35" height="35">
<rect width="35" height="35" fill="#D9D9D9"/>
</mask>
<g mask="url(#mask0_1_15)">
<path d="M30.6437 13.7983L29.5206 29.3609L31.125 27.1147L32.8899 8.98518L16.5251 19.895L12.835 16.0445L2.24608 7.05991L15.7229 22.7829C16.2042 23.2642 16.846 23.4246 17.4877 22.9433L30.6437 13.7983Z" fill="#573BFF"/>
<path d="M26.6326 8.02364C19.7337 9.46758 13.7975 9.62802 11.7118 9.46758L13.4766 11.3928C21.4986 10.9115 25.3491 9.78846 26.3117 9.14671C26.9535 8.66539 26.793 8.18407 26.6326 8.02364Z" fill="#02C4FB"/>
<path d="M24.0656 11.5528C19.7338 12.8363 16.0437 13.1572 14.7602 13.1572L16.0437 14.2802C21.0173 13.6385 23.4238 12.6758 23.9052 12.1945C24.3865 11.8737 24.226 11.5528 24.0656 11.5528Z" fill="#573BFF"/>
<path d="M33.9477 7.53702C33.5714 7.47865 33.2068 7.65162 32.8899 7.86285V7.86285L16.846 18.7727L9.46587 10.7507L8.13793 9.34391L6.73842 7.86285C9.78675 8.18373 22.301 7.70242 29.1998 6.09803C32.4086 5.29584 31.7668 3.85189 31.446 4.01233C16.5252 6.09803 3.52965 4.81452 3.52965 4.81452C2.81572 4.75453 2.43595 4.9309 2.0857 5.45628C1.76482 5.93759 1.92526 6.57935 2.24614 7.06066L3.04833 7.86285L6.73842 11.5529L15.8834 21.1793C16.3647 21.6606 17.0065 21.6606 17.6482 21.3397L31.9273 11.5529C31.1251 18.7727 30.1624 25.9924 29.6811 27.7572C26.4724 28.399 7.70105 28.5594 5.13403 27.9177C4.33184 26.6342 3.36921 20.3771 2.72746 13.7991C2.56702 12.8364 1.60439 12.1947 0.641754 12.676C0.641754 12.676 0 12.9894 0 13.9595C1.60439 29.2012 3.20877 30.0034 3.69009 30.3243C4.65272 30.8056 11.0703 31.1264 17.6482 31.1264C24.2262 31.1264 30.6438 30.8056 31.6064 30.0034C31.9273 29.6825 33.0503 28.7199 34.9756 9.78812V9.62768C35.1061 8.32274 34.7059 7.65463 33.9477 7.53702Z" fill="#573BFF"/>
<path d="M2.96761 7.87893H6.75368L9.74331 11.0527H5.64447L2.96761 7.87893Z" fill="url(#paint0_linear_1_15)"/>
</g>
<defs>
<linearGradient id="paint0_linear_1_15" x1="4.98739" y1="7.87893" x2="6.8331" y2="11.128" gradientUnits="userSpaceOnUse">
<stop stop-color="#0C0632"/>
<stop offset="1" stop-color="#573BFF"/>
</linearGradient>
</defs>
</svg>
